<svg width="154" height="154" viewBox="0 0 154 154" fill="none" xmlns="http://www.w3.org/2000/svg">
<path fill-rule="evenodd" clip-rule="evenodd" d="M154 77C154 92.6588 149.326 107.226 141.297 119.382L141.321 119.396C139.297 122.731 138.14 126.598 138.14 130.721C138.14 137.271 141.061 143.175 145.737 147.329C140.81 151.077 133.92 151.735 128.217 148.453L117.679 142.39C105.875 149.749 91.9341 154 77 154C34.4741 154 0 119.526 0 77C0 34.4741 34.4741 0 77 0C119.526 0 154 34.4741 154 77ZM124.082 85.7321C122.12 83.8827 119.245 82.5828 116.435 82.1283C113.678 81.6826 110.281 81.9569 107.847 84.2255C106.138 85.8179 104.825 87.3796 103.691 89.5539C102.597 91.6509 101.72 94.2241 100.732 97.7462C99.6317 101.665 99.5992 105.755 99.8079 108.771C99.9136 110.297 100.085 111.593 100.23 112.513C100.303 112.973 100.37 113.342 100.42 113.602C100.445 113.731 100.466 113.834 100.481 113.906C100.489 113.943 100.495 113.972 100.499 113.993L100.505 114.02L100.507 114.029L100.508 114.032L100.508 114.034C100.508 114.034 100.508 114.034 100.616 114.01L100.613 114.011L100.508 114.035L100.514 114.059C99.8956 114.357 99.2658 114.645 98.625 114.923C93.9374 116.957 88.7886 118.393 83.4771 119.139C78.1656 119.886 72.8204 119.925 67.7539 119.262C62.6853 118.599 58.0268 117.252 54.0344 115.329C50.0405 113.405 46.83 110.964 44.5212 108.195C42.2199 105.436 40.8506 102.4 40.4089 99.2569C40.194 97.7279 38.7803 96.6626 37.2513 96.8775C35.7224 97.0924 34.6571 98.5061 34.8719 100.035C35.4713 104.299 37.319 108.29 40.2272 111.777C43.1279 115.255 47.0173 118.156 51.6083 120.367C56.2008 122.578 61.4442 124.076 67.0289 124.806C72.6157 125.537 78.4669 125.49 84.2553 124.676C90.0437 123.863 95.6811 122.295 100.85 120.053C106.017 117.811 110.645 114.927 114.45 111.535L114.612 111.39L114.749 111.223C118.271 106.936 120.311 104.122 122.506 100.513C123.76 98.4504 124.749 96.8136 125.454 95.5086C126.133 94.2494 126.704 93.0257 126.914 91.8373C127.164 90.4285 126.895 89.1769 126.179 88.0508C125.632 87.1906 124.821 86.4272 124.168 85.8131L124.168 85.8131L124.082 85.7321ZM105.386 108.385C105.462 109.477 105.575 110.432 105.683 111.176C107.455 110.035 109.09 108.805 110.569 107.503C113.885 103.458 115.734 100.887 117.729 97.6073C119.005 95.5082 119.911 94.0052 120.533 92.8531C121.11 91.7836 121.321 91.2299 121.389 90.9513C121.242 90.7618 120.943 90.4565 120.248 89.8015C119.218 88.8311 117.422 87.9521 115.542 87.648C113.608 87.3353 112.295 87.7229 111.659 88.3163C110.296 89.5859 109.422 90.6558 108.648 92.1395C107.834 93.7005 107.082 95.8117 106.115 99.2573C105.259 102.306 105.199 105.679 105.386 108.385Z" fill="#FA7F3A"/>
</svg>
