<svg width="96" height="45" viewBox="0 0 96 45" fill="none" xmlns="http://www.w3.org/2000/svg">
<path d="M15.8427 45C16.3451 41.6667 16.8117 38.4397 17.2423 35.3191C17.7089 32.1631 18.1037 28.9894 18.4267 25.7979H0.5V17.5532H19.1265C19.2342 16.0638 19.306 14.5567 19.3419 13.0319C19.4136 11.4716 19.4854 9.87589 19.5572 8.24468H0.5V0H30.9161C30.8444 4.07801 30.7188 7.99645 30.5393 11.7553C30.3599 15.4787 30.1266 19.1489 29.8395 22.766C29.5524 26.383 29.1755 30.0177 28.709 33.6702C28.2783 37.3227 27.7579 41.0993 27.1478 45H15.8427ZM34.6845 0H45.4513V45H34.6845V0Z" fill="#FA7F3A"/>
<path d="M80.3727 26.3298H61.5846V36.7553C65.4966 36.7553 69.1393 36.6489 72.5129 36.4362C75.9224 36.1879 79.1704 35.7624 82.2569 35.1596V45H50.8179V0H80.911V8.24468H61.5846V18.0851H80.3727V26.3298ZM84.7332 0H95.5V45H84.7332V0Z" fill="#FA7F3A"/>
</svg>
